# xmcd
#
# Track frame offsets: 
#        150
#        8172
#        30372
#        48864
#        70509
#        86113
#        105170
#        123614
#        140308
#        157843
#        177715
#        195768
#        209655
#        222697
#        240009
#        256001
#        274345
#        289770
#        311911
#
# Disc length: 4380 seconds
#
# Revision: 0
# Processed by: cddbd v1.5.2PL0 Copyright (c) Steve Scherf et al.
# Submitted via: ExactAudioCopy v0.99pb5
#
DISCID=05111a13
DTITLE=O.C. - Word...Life
DYEAR=1994
DGENRE=Hip-Hop
TTITLE0=Creative Control
TTITLE1=Word...Life
TTITLE2=O-Zone
TTITLE3=Born 2 Live
TTITLE4=Time's Up
TTITLE5=Point O Viewz
TTITLE6=Constables
TTITLE7=Ga Head
TTITLE8=No Main Topic
TTITLE9=Let It Slide
TTITLE10=Ma Dukes
TTITLE11=Story
TTITLE12=Outtro (Sabatoge)
TTITLE13=Born 2 Live (Remix)
TTITLE14=Time's Up (Remix)
TTITLE15=O-Zone (Demo Version)
TTITLE16=Snakes
TTITLE17=Word...Life (Remix)
TTITLE18=Time's Up Katalyst (Remix)
EXTD=
EXTT0=
EXTT1=
EXTT2=
EXTT3=
EXTT4=
EXTT5=
EXTT6=
EXTT7=
EXTT8=
EXTT9=
EXTT10=
EXTT11=
EXTT12=
EXTT13=
EXTT14=
EXTT15=
EXTT16=
EXTT17=
EXTT18=
PLAYORDER=
